To dokimanter auto deixnei me liga logia pos ftasame sthn shmerinh ellinikh krish, me apospasmata apo alles ekpompes opws "To Kouti ths Pandwras", "Debtocracy" klp.
Diarkei 55 lepta. Einai poly aplo na to katanohsei kaneis.

Protoparousiasthke edw:
Egw apla ta anevasa edw.

Opos mporeite na deite na grafei sto video o dhmiourgos tou: "O DHMIOURGOS TOU THEWREI TIMH THN KATHE ANAPARAGWGH KAI PROVOLH TOU", opote den pistevw pws tithetai thema copyright.
dhmiourgia, montaz: Dhmhtrhs Savvaidhs.
To video ftaixthke se synergasia me tous Aganaktismenous ths Thessalonikhs. Opws lene se sxolia sto youtube, etoimazoun ypotitlous gia to video se 14 glwsses, gia na ginei pio gnwsto!!!

Mporeite na deite ta arxeia (FLV, WebM) me ton VLC Media Player: https://thepiratebay.org/torrent/6339305/
To arxeio WebM paizei kai me enan sygxrono browser (p.x. FireFox 4 kai neoteres ekdoseis http://www.mozilla.com/el/firefox/ )

TECHNICAL DETAILS

FLV File
General
Complete name                    : ÎÎ¤ÎŸÎšÎŸÎ¥ÎœÎ•ÎÎ¤ÎŸ\ÎÎ¤ÎŸÎšÎŸÎ¥ÎœÎ•ÎÎ¤ÎŸ.flv
Format                           : Flash Video
File size                        : 233 MiB
Duration                         : 55mn 3s
Overall bit rate                 : 591 Kbps
httphostheader                   :

Video
Format                           : AVC
Format/Info                      : Advanced Video Codec
Format profile                   : Main@L3.0
Format settings, CABAC           : Yes
Format settings, ReFrames        : 3 frames
Format settings, GOP             : M=1, N=50
Codec ID                         : 7
Duration                         : 55mn 3s
Width                            : 854 pixels
Height                           : 468 pixels
Display aspect ratio             : 16:9
Frame rate mode                  : Constant
Frame rate                       : 25.000 fps
Color space                      : YUV
Chroma subsampling               : 4:2:0
Bit depth                        : 8 bits
Scan type                        : Progressive

Audio
Format                           : AAC
Format/Info                      : Advanced Audio Codec
Format profile                   : LC
Codec ID                         : 10
Duration                         : 55mn 3s
Channel(s)                       : 2 channels
Channel positions                : Front: L R
Sampling rate                    : 44.1 KHz
Compression mode                 : Lossy


WebM File

General
Unique ID                        : 314909345993243325380142542277299004692 (0xECE9557BE274585C968726F44071E514)
Complete name                    : ÎÎ¤ÎŸÎšÎŸÎ¥ÎœÎ•ÎÎ¤ÎŸ\ÎÎ¤ÎŸÎšÎŸÎ¥ÎœÎ•ÎÎ¤ÎŸ.webm
Format                           : WebM
File size                        : 204 MiB
Duration                         : 55mn 3s
Overall bit rate                 : 518 Kbps
Writing application              : Lavf52.84.0
Writing library                  : Lavf52.84.0

Video
ID                               : 1
Format                           : VP8
Codec ID                         : V_VP8
Duration                         : 55mn 3s
Bit rate                         : 329 Kbps
Width                            : 854 pixels
Height                           : 468 pixels
Display aspect ratio             : 16:9
Frame rate                       : 25.000 fps
Compression mode                 : Lossy
Bits/(Pixel*Frame)               : 0.033
Stream size                      : 129 MiB (63%)
Language                         : English

Audio
ID                               : 2
Format                           : Vorbis
Format settings, Floor           : 1
Codec ID                         : A_VORBIS
Duration                         : 55mn 3s
Bit rate                         : 160 Kbps
Channel(s)                       : 2 channels
Sampling rate                    : 44.1 KHz
Compression mode                 : Lossy
Stream size                      : 63.0 MiB (31%)
Writing library                  : libVorbis (Everywhere) (20100325 (Everywhere))
Language                         : English